REM DIRINDEX 1
REM DIRNAME folder01
TITLE ""
FILE "Disk3Track33.mp3" MP3
  TRACK 01 AUDIO
    TITLE "1:cjc069_1271"
    INDEX 01 00:00:00
  TRACK 02 AUDIO
    TITLE "1:cjc069_1272"
    INDEX 01 00:11:46
  TRACK 03 AUDIO
    TITLE "1:cjc069_1273"
    INDEX 01 00:19:42
  TRACK 04 AUDIO
    TITLE "1:cjc069_1274"
    INDEX 01 00:31:31
  TRACK 05 AUDIO
    TITLE "0:"
    INDEX 01 00:41:20
